<svg width="56" height="314" viewBox="0 0 56 314" fill="none" xmlns="http://www.w3.org/2000/svg">
<rect x="0.5" y="0.5" width="55" height="313" rx="4.5" stroke="#7B61FF" stroke-dasharray="10 5"/>
<path d="M37.97 34.33C37.97 34.69 37.89 35.06 37.72 35.42C37.55 35.78 37.33 36.12 37.04 36.44C36.55 36.98 36.01 37.37 35.4 37.62C34.8 37.87 34.15 38 33.45 38C32.43 38 31.34 37.76 30.19 37.27C29.04 36.78 27.89 36.12 26.75 35.29C25.6 34.45 24.51 33.52 23.47 32.49C22.44 31.45 21.51 30.36 20.68 29.22C19.86 28.08 19.2 26.94 18.72 25.81C18.24 24.67 18 23.58 18 22.54C18 21.86 18.12 21.21 18.36 20.61C18.6 20 18.98 19.44 19.51 18.94C20.15 18.31 20.85 18 21.59 18C21.87 18 22.15 18.06 22.4 18.18C22.66 18.3 22.89 18.48 23.07 18.74L25.39 22.01C25.57 22.26 25.7 22.49 25.79 22.71C25.88 22.92 25.93 23.13 25.93 23.32C25.93 23.56 25.86 23.8 25.72 24.03C25.59 24.26 25.4 24.5 25.16 24.74L24.4 25.53C24.29 25.64 24.24 25.77 24.24 25.93C24.24 26.01 24.25 26.08 24.27 26.16C24.3 26.24 24.33 26.3 24.35 26.36C24.53 26.69 24.84 27.12 25.28 27.64C25.73 28.16 26.21 28.69 26.73 29.22C27.27 29.75 27.79 30.24 28.32 30.69C28.84 31.13 29.27 31.43 29.61 31.61C29.66 31.63 29.72 31.66 29.79 31.69C29.87 31.72 29.95 31.73 30.04 31.73C30.21 31.73 30.34 31.67 30.45 31.56L31.21 30.81C31.46 30.56 31.7 30.37 31.93 30.25C32.16 30.11 32.39 30.04 32.64 30.04C32.83 30.04 33.03 30.08 33.25 30.17C33.47 30.26 33.7 30.39 33.95 30.56L37.26 32.91C37.52 33.09 37.7 33.3 37.81 33.55C37.91 33.8 37.97 34.05 37.97 34.33Z" stroke="white" stroke-width="1.5" stroke-miterlimit="10"/>
<path d="M37.97 82.33C37.97 82.69 37.89 83.06 37.72 83.42C37.55 83.78 37.33 84.12 37.04 84.44C36.55 84.98 36.01 85.37 35.4 85.62C34.8 85.87 34.15 86 33.45 86C32.43 86 31.34 85.76 30.19 85.27C29.04 84.78 27.89 84.12 26.75 83.29C25.6 82.45 24.51 81.52 23.47 80.49C22.44 79.45 21.51 78.36 20.68 77.22C19.86 76.08 19.2 74.94 18.72 73.81C18.24 72.67 18 71.58 18 70.54C18 69.86 18.12 69.21 18.36 68.61C18.6 68 18.98 67.44 19.51 66.94C20.15 66.31 20.85 66 21.59 66C21.87 66 22.15 66.06 22.4 66.18C22.66 66.3 22.89 66.48 23.07 66.74L25.39 70.01C25.57 70.26 25.7 70.49 25.79 70.71C25.88 70.92 25.93 71.13 25.93 71.32C25.93 71.56 25.86 71.8 25.72 72.03C25.59 72.26 25.4 72.5 25.16 72.74L24.4 73.53C24.29 73.64 24.24 73.77 24.24 73.93C24.24 74.01 24.25 74.08 24.27 74.16C24.3 74.24 24.33 74.3 24.35 74.36C24.53 74.69 24.84 75.12 25.28 75.64C25.73 76.16 26.21 76.69 26.73 77.22C27.27 77.75 27.79 78.24 28.32 78.69C28.84 79.13 29.27 79.43 29.61 79.61C29.66 79.63 29.72 79.66 29.79 79.69C29.87 79.72 29.95 79.73 30.04 79.73C30.21 79.73 30.34 79.67 30.45 79.56L31.21 78.81C31.46 78.56 31.7 78.37 31.93 78.25C32.16 78.11 32.39 78.04 32.64 78.04C32.83 78.04 33.03 78.08 33.25 78.17C33.47 78.26 33.7 78.39 33.95 78.56L37.26 80.91C37.52 81.09 37.7 81.3 37.81 81.55C37.91 81.8 37.97 82.05 37.97 82.33Z" fill="white"/>
<path d="M33.45 134.75C32.32 134.75 31.13 134.48 29.9 133.96C28.7 133.45 27.49 132.75 26.31 131.9C25.14 131.04 24.01 130.08 22.94 129.03C21.88 127.96 20.92 126.83 20.07 125.67C19.21 124.47 18.52 123.27 18.03 122.11C17.51 120.87 17.25 119.67 17.25 118.54C17.25 117.76 17.39 117.02 17.66 116.33C17.94 115.62 18.39 114.96 19 114.39C19.77 113.63 20.65 113.25 21.59 113.25C21.98 113.25 22.38 113.34 22.72 113.5C23.11 113.68 23.44 113.95 23.68 114.31L26 117.58C26.21 117.87 26.37 118.15 26.48 118.43C26.61 118.73 26.68 119.03 26.68 119.32C26.68 119.7 26.57 120.07 26.36 120.42C26.21 120.69 25.98 120.98 25.69 121.27L25.01 121.98C25.02 122.01 25.03 122.03 25.04 122.05C25.16 122.26 25.4 122.62 25.86 123.16C26.35 123.72 26.81 124.23 27.27 124.7C27.86 125.28 28.35 125.74 28.81 126.12C29.38 126.6 29.75 126.84 29.97 126.95L29.95 127L30.68 126.28C30.99 125.97 31.29 125.74 31.58 125.59C32.13 125.25 32.83 125.19 33.53 125.48C33.79 125.59 34.07 125.74 34.37 125.95L37.69 128.31C38.06 128.56 38.33 128.88 38.49 129.26C38.64 129.64 38.71 129.99 38.71 130.34C38.71 130.82 38.6 131.3 38.39 131.75C38.18 132.2 37.92 132.59 37.59 132.95C37.02 133.58 36.4 134.03 35.68 134.32C34.99 134.6 34.24 134.75 33.45 134.75ZM21.59 114.75C21.04 114.75 20.53 114.99 20.04 115.47C19.58 115.9 19.26 116.37 19.06 116.88C18.85 117.4 18.75 117.95 18.75 118.54C18.75 119.47 18.97 120.48 19.41 121.52C19.86 122.58 20.49 123.68 21.29 124.78C22.09 125.88 23 126.95 24 127.96C25 128.95 26.08 129.87 27.19 130.68C28.27 131.47 29.38 132.11 30.48 132.57C32.19 133.3 33.79 133.47 35.11 132.92C35.62 132.71 36.07 132.39 36.48 131.93C36.71 131.68 36.89 131.41 37.04 131.09C37.16 130.84 37.22 130.58 37.22 130.32C37.22 130.16 37.19 130 37.11 129.82C37.08 129.76 37.02 129.65 36.83 129.52L33.51 127.16C33.31 127.02 33.13 126.92 32.96 126.85C32.74 126.76 32.65 126.67 32.31 126.88C32.11 126.98 31.93 127.13 31.73 127.33L30.97 128.08C30.58 128.46 29.98 128.55 29.52 128.38L29.25 128.26C28.84 128.04 28.36 127.7 27.83 127.25C27.35 126.84 26.83 126.36 26.2 125.74C25.71 125.24 25.22 124.71 24.71 124.12C24.24 123.57 23.9 123.1 23.69 122.71L23.57 122.41C23.51 122.18 23.49 122.05 23.49 121.91C23.49 121.55 23.62 121.23 23.87 120.98L24.62 120.2C24.82 120 24.97 119.81 25.07 119.64C25.15 119.51 25.18 119.4 25.18 119.3C25.18 119.22 25.15 119.1 25.1 118.98C25.03 118.82 24.92 118.64 24.78 118.45L22.46 115.17C22.36 115.03 22.24 114.93 22.09 114.86C21.93 114.79 21.76 114.75 21.59 114.75ZM29.95 127.01L29.79 127.69L30.06 126.99C30.01 126.98 29.97 126.99 29.95 127.01Z" fill="white"/>
<path d="M37.97 178.33C37.97 178.69 37.89 179.06 37.72 179.42C37.55 179.78 37.33 180.12 37.04 180.44C36.55 180.98 36.01 181.37 35.4 181.62C34.8 181.87 34.15 182 33.45 182C32.43 182 31.34 181.76 30.19 181.27C29.04 180.78 27.89 180.12 26.75 179.29C25.6 178.45 24.51 177.52 23.47 176.49C22.44 175.45 21.51 174.36 20.68 173.22C19.86 172.08 19.2 170.94 18.72 169.81C18.24 168.67 18 167.58 18 166.54C18 165.86 18.12 165.21 18.36 164.61C18.6 164 18.98 163.44 19.51 162.94C20.15 162.31 20.85 162 21.59 162C21.87 162 22.15 162.06 22.4 162.18C22.66 162.3 22.89 162.48 23.07 162.74L25.39 166.01C25.57 166.26 25.7 166.49 25.79 166.71C25.88 166.92 25.93 167.13 25.93 167.32C25.93 167.56 25.86 167.8 25.72 168.03C25.59 168.26 25.4 168.5 25.16 168.74L24.4 169.53C24.29 169.64 24.24 169.77 24.24 169.93C24.24 170.01 24.25 170.08 24.27 170.16C24.3 170.24 24.33 170.3 24.35 170.36C24.53 170.69 24.84 171.12 25.28 171.64C25.73 172.16 26.21 172.69 26.73 173.22C27.27 173.75 27.79 174.24 28.32 174.69C28.84 175.13 29.27 175.43 29.61 175.61C29.66 175.63 29.72 175.66 29.79 175.69C29.87 175.72 29.95 175.73 30.04 175.73C30.21 175.73 30.34 175.67 30.45 175.56L31.21 174.81C31.46 174.56 31.7 174.37 31.93 174.25C32.16 174.11 32.39 174.04 32.64 174.04C32.83 174.04 33.03 174.08 33.25 174.17C33.47 174.26 33.7 174.39 33.95 174.56L37.26 176.91C37.52 177.09 37.7 177.3 37.81 177.55C37.91 177.8 37.97 178.05 37.97 178.33Z" stroke="white" stroke-width="1.5" stroke-miterlimit="10"/>
<path opacity="0.4" d="M27.79 222.21L24.52 225.48C24.16 225.16 23.81 224.83 23.47 224.49C22.44 223.45 21.51 222.36 20.68 221.22C19.86 220.08 19.2 218.94 18.72 217.81C18.24 216.67 18 215.58 18 214.54C18 213.86 18.12 213.21 18.36 212.61C18.6 212 18.98 211.44 19.51 210.94C20.15 210.31 20.85 210 21.59 210C21.87 210 22.15 210.06 22.4 210.18C22.66 210.3 22.89 210.48 23.07 210.74L25.39 214.01C25.57 214.26 25.7 214.49 25.79 214.71C25.88 214.92 25.93 215.13 25.93 215.32C25.93 215.56 25.86 215.8 25.72 216.03C25.59 216.26 25.4 216.5 25.16 216.74L24.4 217.53C24.29 217.64 24.24 217.77 24.24 217.93C24.24 218.01 24.25 218.08 24.27 218.16C24.3 218.24 24.33 218.3 24.35 218.36C24.53 218.69 24.84 219.12 25.28 219.64C25.73 220.16 26.21 220.69 26.73 221.22C27.09 221.57 27.44 221.91 27.79 222.21Z" fill="white"/>
<path d="M37.97 226.33C37.97 226.61 37.92 226.9 37.82 227.18C37.79 227.26 37.76 227.34 37.72 227.42C37.55 227.78 37.33 228.12 37.04 228.44C36.55 228.98 36.01 229.37 35.4 229.62C35.39 229.62 35.38 229.63 35.37 229.63C34.78 229.87 34.14 230 33.45 230C32.43 230 31.34 229.76 30.19 229.27C29.04 228.78 27.89 228.12 26.75 227.29C26.36 227 25.97 226.71 25.6 226.4L28.87 223.13C29.15 223.34 29.4 223.5 29.61 223.61C29.66 223.63 29.72 223.66 29.79 223.69C29.87 223.72 29.95 223.73 30.04 223.73C30.21 223.73 30.34 223.67 30.45 223.56L31.21 222.81C31.46 222.56 31.7 222.37 31.93 222.25C32.16 222.11 32.39 222.04 32.64 222.04C32.83 222.04 33.03 222.08 33.25 222.17C33.47 222.26 33.7 222.39 33.95 222.56L37.26 224.91C37.52 225.09 37.7 225.3 37.81 225.55C37.91 225.8 37.97 226.05 37.97 226.33Z" fill="white"/>
<path d="M25.39 262.01C25.57 262.26 25.7 262.49 25.79 262.71C25.88 262.92 25.93 263.13 25.93 263.32C25.93 263.56 25.86 263.8 25.72 264.03C25.59 264.26 25.4 264.5 25.16 264.74L24.4 265.53C24.29 265.64 24.24 265.77 24.24 265.93C24.24 266.01 24.25 266.08 24.27 266.16C24.3 266.24 24.33 266.3 24.35 266.36C24.53 266.69 24.84 267.12 25.28 267.64C25.73 268.16 26.21 268.69 26.73 269.22C27.27 269.75 27.79 270.24 28.32 270.69C28.84 271.13 29.27 271.43 29.61 271.61C29.66 271.63 29.72 271.66 29.79 271.69C29.87 271.72 29.95 271.73 30.04 271.73C30.21 271.73 30.34 271.67 30.45 271.56L31.21 270.81C31.46 270.56 31.7 270.37 31.93 270.25C32.16 270.11 32.39 270.04 32.64 270.04C32.83 270.04 33.03 270.08 33.25 270.17C33.47 270.26 33.7 270.39 33.95 270.56L37.26 272.91C37.52 273.09 37.7 273.3 37.81 273.55C37.91 273.8 37.97 274.05 37.97 274.33C37.97 274.69 37.89 275.06 37.72 275.42C37.55 275.78 37.33 276.12 37.04 276.44C36.55 276.98 36.01 277.37 35.4 277.62C34.8 277.87 34.15 278 33.45 278C32.43 278 31.34 277.76 30.19 277.27C29.04 276.78 27.89 276.12 26.75 275.29C25.6 274.45 24.51 273.52 23.47 272.49C22.44 271.45 21.51 270.36 20.68 269.22C19.86 268.08 19.2 266.94 18.72 265.81C18.24 264.67 18 263.58 18 262.54C18 261.86 18.12 261.21 18.36 260.61C18.6 260 18.98 259.44 19.51 258.94C20.15 258.31 20.85 258 21.59 258C21.87 258 22.15 258.06 22.4 258.18C22.66 258.3 22.89 258.48 23.07 258.74" stroke="white" stroke-width="1.5" stroke-miterlimit="10" stroke-linecap="round" stroke-linejoin="round"/>
</svg>
