<svg width="34" height="34" viewBox="0 0 34 34" fill="none" xmlns="http://www.w3.org/2000/svg">
<path d="M21.9725 4.00916H12.0275C8.5 4.00916 7.72084 5.76582 7.26751 7.91916L5.66667 15.5833H28.3333L26.7325 7.91916C26.2792 5.76582 25.5 4.00916 21.9725 4.00916Z" stroke="#4EFFF6" stroke-width="1.5" stroke-linecap="round" stroke-linejoin="round"/>
<path d="M31.1525 28.0783C31.3083 29.7358 29.9767 31.1666 28.2767 31.1666H25.6133C24.0833 31.1666 23.8708 30.515 23.6017 29.7075L23.3183 28.8575C22.9217 27.6958 22.6667 26.9166 20.6267 26.9166H13.3733C11.3333 26.9166 11.0358 27.795 10.6817 28.8575L10.3983 29.7075C10.1292 30.515 9.91666 31.1666 8.38666 31.1666H5.72333C4.02333 31.1666 2.69166 29.7358 2.84749 28.0783L3.64083 19.4508C3.83916 17.3258 4.24999 15.5833 7.96166 15.5833H26.0383C29.75 15.5833 30.1608 17.3258 30.3592 19.4508L31.1525 28.0783Z" stroke="#4EFFF6" stroke-width="1.5" stroke-linecap="round" stroke-linejoin="round"/>
<path d="M5.66667 11.3333H4.25" stroke="#4EFFF6" stroke-width="1.5" stroke-linecap="round" stroke-linejoin="round"/>
<path d="M29.75 11.3333H28.3333" stroke="#4EFFF6" stroke-width="1.5" stroke-linecap="round" stroke-linejoin="round"/>
<path d="M17 4.25V7.08333" stroke="#4EFFF6" stroke-width="1.5" stroke-linecap="round" stroke-linejoin="round"/>
<path d="M14.875 7.08331H19.125" stroke="#4EFFF6" stroke-width="1.5" stroke-linecap="round" stroke-linejoin="round"/>
<path d="M8.5 21.25H12.75" stroke="#4EFFF6" stroke-width="1.5" stroke-linecap="round" stroke-linejoin="round"/>
<path d="M21.25 21.25H25.5" stroke="#4EFFF6" stroke-width="1.5" stroke-linecap="round" stroke-linejoin="round"/>
</svg>
