<svg width="34" height="34" viewBox="0 0 34 34" fill="none" xmlns="http://www.w3.org/2000/svg">
<path d="M12.0417 26.9167H11.3333C5.66666 26.9167 2.83333 25.5 2.83333 18.4167V11.3334C2.83333 5.66671 5.66666 2.83337 11.3333 2.83337H22.6667C28.3333 2.83337 31.1667 5.66671 31.1667 11.3334V18.4167C31.1667 24.0834 28.3333 26.9167 22.6667 26.9167H21.9583C21.5192 26.9167 21.0942 27.1292 20.825 27.4834L18.7 30.3167C17.765 31.5634 16.235 31.5634 15.3 30.3167L13.175 27.4834C12.9483 27.1717 12.4242 26.9167 12.0417 26.9167Z" stroke="white" stroke-width="1.5" stroke-miterlimit="10" stroke-linecap="round" stroke-linejoin="round"/>
<path d="M9.91667 11.3334H24.0833" stroke="white" stroke-width="1.5" stroke-linecap="round" stroke-linejoin="round"/>
<path d="M9.91667 18.4166H18.4167" stroke="white" stroke-width="1.5" stroke-linecap="round" stroke-linejoin="round"/>
</svg>
