<svg width="56" height="314" viewBox="0 0 56 314" fill="none" xmlns="http://www.w3.org/2000/svg">
<rect x="0.5" y="0.5" width="55" height="313" rx="4.5" stroke="#7B61FF" stroke-dasharray="10 5"/>
<path d="M23.27 29.01C22.74 28.74 22.15 28.6 21.55 28.6C16.87 28.93 16.87 35.74 21.55 36.07H32.64C33.99 36.08 35.29 35.58 36.28 34.67C39.57 31.8 37.81 26.03 33.48 25.48C31.92 16.11 18.39 19.67 21.6 28.6" stroke="white" stroke-width="1.5" stroke-miterlimit="10" stroke-linecap="round" stroke-linejoin="round"/>
<path d="M31.85 25.92C32.37 25.66 32.94 25.52 33.52 25.51" stroke="white" stroke-width="1.5" stroke-miterlimit="10" stroke-linecap="round" stroke-linejoin="round"/>
<path d="M37.74 76.9101C37.48 76.0501 37.05 75.3001 36.48 74.6901C35.75 73.8601 34.78 73.2901 33.69 73.0401C33.14 70.5401 31.6 68.7401 29.41 68.0701C27.03 67.3301 24.27 68.0501 22.54 69.8601C21.02 71.4501 20.52 73.6401 21.11 75.9701C19.11 76.4601 18.12 78.1301 18.01 79.7201C18 79.8301 18 79.9301 18 80.0301C18 81.9101 19.23 84.0201 21.97 84.2201H32.35C33.77 84.2201 35.13 83.6901 36.17 82.7401C37.8 81.3101 38.4 79.0801 37.74 76.9101Z" fill="white"/>
<path d="M32.68 132.83C32.67 132.83 32.65 132.83 32.64 132.83H21.55C18.61 132.62 17.29 130.36 17.29 128.34C17.29 126.54 18.34 124.54 20.63 123.99C19.99 121.49 20.53 119.14 22.16 117.44C24.01 115.5 26.98 114.73 29.53 115.52C31.87 116.24 33.52 118.17 34.12 120.85C36.17 121.31 37.8 122.86 38.46 125C39.17 127.33 38.53 129.72 36.78 131.25C35.66 132.26 34.2 132.83 32.68 132.83ZM21.57 125.35C21.56 125.35 21.56 125.35 21.55 125.35C19.65 125.49 18.78 126.95 18.78 128.34C18.78 129.73 19.65 131.19 21.59 131.33H32.63C33.79 131.31 34.9 130.91 35.76 130.13C37.32 128.76 37.43 126.81 37.01 125.44C36.59 124.06 35.42 122.5 33.38 122.24C33.05 122.2 32.79 121.95 32.73 121.62C32.33 119.22 31.03 117.56 29.08 116.96C27.05 116.34 24.71 116.95 23.24 118.48C21.91 119.87 21.53 121.79 22.15 123.9C22.66 123.97 23.15 124.12 23.6 124.35C23.97 124.54 24.12 124.99 23.93 125.36C23.74 125.73 23.29 125.88 22.92 125.69C22.51 125.48 22.06 125.37 21.61 125.37C21.6 125.35 21.59 125.35 21.57 125.35Z" fill="white"/>
<path d="M31.85 122.67C31.57 122.67 31.31 122.52 31.18 122.25C30.99 121.88 31.15 121.43 31.52 121.24C32.14 120.93 32.83 120.76 33.51 120.75C33.91 120.74 34.27 121.07 34.27 121.49C34.28 121.9 33.95 122.25 33.53 122.25C33.07 122.26 32.6 122.37 32.18 122.58C32.07 122.64 31.96 122.67 31.85 122.67Z" fill="white"/>
<path d="M23.27 173.01C22.74 172.74 22.15 172.6 21.55 172.6C16.87 172.93 16.87 179.74 21.55 180.07H32.64C33.99 180.08 35.29 179.58 36.28 178.67C39.57 175.8 37.81 170.03 33.48 169.48C31.92 160.11 18.39 163.67 21.6 172.6" stroke="white" stroke-width="1.5" stroke-miterlimit="10" stroke-linecap="round" stroke-linejoin="round"/>
<path d="M31.85 169.92C32.37 169.66 32.94 169.52 33.52 169.51" stroke="white" stroke-width="1.5" stroke-miterlimit="10" stroke-linecap="round" stroke-linejoin="round"/>
<path d="M36.48 218.69L18.01 223.72C18.12 222.13 19.11 220.46 21.11 219.97C20.52 217.64 21.02 215.45 22.54 213.86C24.27 212.05 27.03 211.33 29.41 212.07C31.6 212.74 33.14 214.54 33.69 217.04C34.78 217.29 35.75 217.86 36.48 218.69Z" fill="white"/>
<path opacity="0.4" d="M36.17 226.74C35.13 227.69 33.77 228.22 32.35 228.22H21.97C19.23 228.02 18 225.91 18 224.03C18 223.93 18 223.83 18.01 223.72L36.48 218.69C37.05 219.3 37.48 220.05 37.74 220.91C38.4 223.08 37.8 225.31 36.17 226.74Z" fill="white"/>
<path d="M31.85 265.92C32.37 265.66 32.94 265.52 33.52 265.51" stroke="white" stroke-width="1.5" stroke-miterlimit="10" stroke-linecap="round" stroke-linejoin="round"/>
<path d="M27.99 259.9C23.98 259.57 19.62 263.03 21.59 268.52" stroke="white" stroke-width="1.5" stroke-miterlimit="10" stroke-linecap="round" stroke-linejoin="round"/>
<path d="M23.26 268.93C22.73 268.66 22.14 268.52 21.54 268.52C16.86 268.85 16.86 275.66 21.54 275.99H32.63C33.98 276 35.28 275.5 36.27 274.59C39.56 271.72 37.8 265.95 33.47 265.4C33.23 263.94 32.69 262.79 31.98 261.93" stroke="white" stroke-width="1.5" stroke-miterlimit="10" stroke-linecap="round" stroke-linejoin="round"/>
<path d="M31.84 265.84C32.36 265.58 32.93 265.44 33.51 265.43" stroke="white" stroke-width="1.5" stroke-miterlimit="10" stroke-linecap="round" stroke-linejoin="round"/>
</svg>
