<svg width="56" height="296" viewBox="0 0 56 296" fill="none" xmlns="http://www.w3.org/2000/svg">
<rect x="0.5" y="0.5" width="55" height="295" rx="4.5" stroke="#7B61FF" stroke-dasharray="10 5"/>
<path d="M30.55 18H25.45C23.65 18 23.25 18.9 23.02 20.01L22.2 23.93H33.8L32.98 20.01C32.75 18.9 32.35 18 30.55 18Z" stroke="white" stroke-width="1.5" stroke-linecap="round" stroke-linejoin="round"/>
<path d="M35.24 30.3199C35.32 31.1699 34.64 31.9 33.77 31.9H32.41C31.63 31.9 31.52 31.57 31.38 31.15L31.23 30.7199C31.03 30.1299 30.9 29.7299 29.85 29.7299H26.14C25.1 29.7299 24.94 30.1799 24.76 30.7199L24.61 31.15C24.47 31.56 24.36 31.9 23.58 31.9H22.22C21.35 31.9 20.67 31.1699 20.75 30.3199L21.16 25.9C21.26 24.81 21.47 23.9199 23.37 23.9199H32.62C34.52 23.9199 34.73 24.81 34.83 25.9L35.24 30.3199Z" stroke="white" stroke-width="1.5" stroke-linecap="round" stroke-linejoin="round"/>
<path d="M22.2 21.75H21.47" stroke="white" stroke-width="1.5" stroke-linecap="round" stroke-linejoin="round"/>
<path d="M34.53 21.75H33.8" stroke="white" stroke-width="1.5" stroke-linecap="round" stroke-linejoin="round"/>
<path d="M23.65 26.8301H25.82" stroke="white" stroke-width="1.5" stroke-linecap="round" stroke-linejoin="round"/>
<path d="M30.18 26.8301H32.35" stroke="white" stroke-width="1.5" stroke-linecap="round" stroke-linejoin="round"/>
<path d="M28 33V34" stroke="white" stroke-width="1.5" stroke-linecap="round" stroke-linejoin="round"/>
<path d="M28 37V38" stroke="white" stroke-width="1.5" stroke-linecap="round" stroke-linejoin="round"/>
<path d="M19 34L18 38" stroke="white" stroke-width="1.5" stroke-linecap="round" stroke-linejoin="round"/>
<path d="M37 34L38 38" stroke="white" stroke-width="1.5" stroke-linecap="round" stroke-linejoin="round"/>
<path d="M28 82.75C27.59 82.75 27.25 82.41 27.25 82V81C27.25 80.59 27.59 80.25 28 80.25C28.41 80.25 28.75 80.59 28.75 81V82C28.75 82.41 28.41 82.75 28 82.75Z" fill="white"/>
<path d="M28 86.75C27.59 86.75 27.25 86.41 27.25 86V85C27.25 84.59 27.59 84.25 28 84.25C28.41 84.25 28.75 84.59 28.75 85V86C28.75 86.41 28.41 86.75 28 86.75Z" fill="white"/>
<path d="M18 86.7501C17.94 86.7501 17.88 86.7401 17.82 86.7301C17.42 86.6301 17.17 86.2201 17.27 85.8201L18.27 81.8201C18.37 81.4201 18.77 81.1701 19.18 81.2701C19.58 81.3701 19.83 81.7801 19.73 82.1801L18.73 86.1801C18.64 86.5201 18.34 86.7501 18 86.7501Z" fill="white"/>
<path d="M37.7526 86.5026C37.4126 86.5026 37.1126 86.2726 37.0226 85.9326L36.0226 81.9326C35.9226 81.5326 36.1626 81.1226 36.5726 81.0226C36.9726 80.9226 37.3826 81.1626 37.4826 81.5726L38.4826 85.5726C38.5826 85.9726 38.3426 86.3826 37.9326 86.4826C37.8726 86.4926 37.8126 86.5026 37.7526 86.5026Z" fill="white"/>
<path d="M35.14 69.3C35.14 69.6 34.89 69.84 34.6 69.84H21.53C21.23 69.84 20.99 69.59 20.99 69.3C20.99 69 21.24 68.76 21.53 68.76H22.27L22.55 67.45C22.81 66.17 23.35 65 25.51 65H30.6C32.76 65 33.31 66.17 33.57 67.44L33.85 68.75H34.59C34.89 68.75 35.14 69 35.14 69.3Z" fill="white"/>
<path d="M35.45 73.3999C35.34 72.1999 35.02 70.9299 32.69 70.9299H23.43C21.1 70.9299 20.79 72.2099 20.67 73.3999L20.26 77.8199C20.21 78.3699 20.39 78.9199 20.77 79.3399C21.16 79.7599 21.7 79.9999 22.28 79.9999H23.64C24.82 79.9999 25.04 79.3299 25.19 78.8799L25.34 78.4399C25.51 77.9399 25.55 77.8199 26.2 77.8199H29.92C30.57 77.8199 30.59 77.8899 30.78 78.4399L30.93 78.8799C31.07 79.3299 31.3 79.9999 32.47 79.9999H33.83C34.4 79.9999 34.95 79.7599 35.34 79.3399C35.72 78.9299 35.9 78.3699 35.85 77.8199L35.45 73.3999ZM25.88 74.9199H23.71C23.41 74.9199 23.17 74.6699 23.17 74.3799C23.17 74.0899 23.42 73.8399 23.71 73.8399H25.89C26.19 73.8399 26.43 74.0899 26.43 74.3799C26.43 74.6699 26.18 74.9199 25.88 74.9199ZM32.41 74.9199H30.23C29.93 74.9199 29.69 74.6699 29.69 74.3799C29.69 74.0899 29.94 73.8399 30.23 73.8399H32.41C32.71 73.8399 32.95 74.0899 32.95 74.3799C32.95 74.6699 32.71 74.9199 32.41 74.9199Z" fill="white"/>
<path d="M33.8001 120.68H22.2C21.97 120.68 21.76 120.58 21.62 120.4C21.48 120.22 21.4201 119.99 21.4701 119.77L22.29 115.85C22.56 114.56 23.15 113.25 25.45 113.25H30.5501C32.8601 113.25 33.4501 114.57 33.7101 115.85L34.5301 119.77C34.5801 119.99 34.5201 120.22 34.3801 120.4C34.2401 120.58 34.0301 120.68 33.8001 120.68ZM23.12 119.18H32.87L32.2401 116.17C32.0401 115.21 31.81 114.76 30.54 114.76H25.4401C24.1801 114.76 23.9401 115.21 23.7401 116.17L23.12 119.18Z" fill="white"/>
<path d="M33.7698 128.65H32.4098C31.0898 128.65 30.8198 127.83 30.6698 127.39L30.5198 126.95C30.3598 126.47 30.3599 126.47 29.8499 126.47H26.1398C25.6298 126.47 25.6298 126.48 25.4698 126.95L25.3199 127.39C25.1699 127.83 24.8998 128.65 23.5798 128.65H22.2198C21.5898 128.65 20.9798 128.38 20.5598 127.92C20.1498 127.47 19.9398 126.86 19.9998 126.25L20.4098 121.84C20.5398 120.46 20.9898 119.18 23.3698 119.18H32.6198C34.9998 119.18 35.4498 120.46 35.5798 121.84L35.9898 126.26C36.0498 126.87 35.8398 127.48 35.4298 127.93C35.0098 128.39 34.3998 128.65 33.7698 128.65ZM32.1798 127.14C32.1998 127.14 32.2798 127.15 32.4098 127.15H33.7698C33.9798 127.15 34.1799 127.07 34.3199 126.91C34.4499 126.77 34.5098 126.58 34.4998 126.39L34.0898 121.97C34.0098 121.08 33.9698 120.67 32.6298 120.67H23.3798C22.0398 120.67 21.9998 121.08 21.9198 121.97L21.5098 126.39C21.4898 126.58 21.5498 126.77 21.6898 126.91C21.8298 127.06 22.0298 127.15 22.2398 127.15H23.5999C23.7999 127.15 23.8598 127.12 23.8698 127.12C23.8598 127.12 23.8898 127 23.9198 126.92L24.0699 126.48C24.2599 125.92 24.5698 124.97 26.1598 124.97H29.8698C31.3198 124.97 31.6898 125.68 31.9498 126.46L32.0999 126.91C32.1199 127 32.1498 127.1 32.1798 127.14C32.1798 127.14 32.1698 127.14 32.1798 127.14Z" fill="white"/>
<path d="M22.2002 118.5H21.4702C21.0602 118.5 20.7202 118.16 20.7202 117.75C20.7202 117.34 21.0602 117 21.4702 117H22.2002C22.6102 117 22.9502 117.34 22.9502 117.75C22.9502 118.16 22.6102 118.5 22.2002 118.5Z" fill="white"/>
<path d="M34.5298 118.5H33.7998C33.3898 118.5 33.0498 118.16 33.0498 117.75C33.0498 117.34 33.3898 117 33.7998 117H34.5298C34.9398 117 35.2798 117.34 35.2798 117.75C35.2798 118.16 34.9398 118.5 34.5298 118.5Z" fill="white"/>
<path d="M25.8201 123.58H23.6401C23.2301 123.58 22.8901 123.24 22.8901 122.83C22.8901 122.42 23.2301 122.08 23.6401 122.08H25.8201C26.2301 122.08 26.5701 122.42 26.5701 122.83C26.5701 123.24 26.2401 123.58 25.8201 123.58Z" fill="white"/>
<path d="M32.3499 123.58H30.1699C29.7599 123.58 29.4199 123.24 29.4199 122.83C29.4199 122.42 29.7599 122.08 30.1699 122.08H32.3499C32.7599 122.08 33.0999 122.42 33.0999 122.83C33.0999 123.24 32.7599 123.58 32.3499 123.58Z" fill="white"/>
<path d="M28 130.75C27.59 130.75 27.25 130.41 27.25 130V129C27.25 128.59 27.59 128.25 28 128.25C28.41 128.25 28.75 128.59 28.75 129V130C28.75 130.41 28.41 130.75 28 130.75Z" fill="white"/>
<path d="M28 134.75C27.59 134.75 27.25 134.41 27.25 134V133C27.25 132.59 27.59 132.25 28 132.25C28.41 132.25 28.75 132.59 28.75 133V134C28.75 134.41 28.41 134.75 28 134.75Z" fill="white"/>
<path d="M18.0001 134.75C17.9401 134.75 17.8801 134.74 17.8201 134.73C17.4201 134.63 17.1701 134.22 17.2701 133.82L18.2701 129.82C18.3701 129.42 18.7701 129.17 19.1801 129.27C19.5801 129.37 19.8301 129.78 19.7301 130.18L18.7301 134.18C18.6401 134.52 18.3401 134.75 18.0001 134.75Z" fill="white"/>
<path d="M38.0002 134.75C37.6602 134.75 37.3602 134.52 37.2702 134.18L36.2702 130.18C36.1702 129.78 36.4102 129.37 36.8202 129.27C37.2202 129.17 37.6302 129.41 37.7302 129.82L38.7302 133.82C38.8302 134.22 38.5902 134.63 38.1802 134.73C38.1202 134.74 38.0602 134.75 38.0002 134.75Z" fill="white"/>
<path d="M30.55 162H25.45C23.65 162 23.25 162.9 23.02 164.01L22.2 167.93H33.8L32.98 164.01C32.75 162.9 32.35 162 30.55 162Z" stroke="white" stroke-width="1.5" stroke-linecap="round" stroke-linejoin="round"/>
<path d="M35.24 174.32C35.32 175.17 34.64 175.9 33.77 175.9H32.41C31.63 175.9 31.52 175.57 31.38 175.15L31.23 174.72C31.03 174.13 30.9 173.73 29.85 173.73H26.14C25.1 173.73 24.94 174.18 24.76 174.72L24.61 175.15C24.47 175.56 24.36 175.9 23.58 175.9H22.22C21.35 175.9 20.67 175.17 20.75 174.32L21.16 169.9C21.26 168.81 21.47 167.92 23.37 167.92H32.62C34.52 167.92 34.73 168.81 34.83 169.9L35.24 174.32Z" stroke="white" stroke-width="1.5" stroke-linecap="round" stroke-linejoin="round"/>
<path d="M22.2 165.75H21.47" stroke="white" stroke-width="1.5" stroke-linecap="round" stroke-linejoin="round"/>
<path d="M34.53 165.75H33.8" stroke="white" stroke-width="1.5" stroke-linecap="round" stroke-linejoin="round"/>
<path opacity="0.4" d="M23.65 170.83H25.82" stroke="white" stroke-width="1.5" stroke-linecap="round" stroke-linejoin="round"/>
<path opacity="0.4" d="M30.18 170.83H32.35" stroke="white" stroke-width="1.5" stroke-linecap="round" stroke-linejoin="round"/>
<path opacity="0.4" d="M28 177V178" stroke="white" stroke-width="1.5" stroke-linecap="round" stroke-linejoin="round"/>
<path opacity="0.4" d="M28 181V182" stroke="white" stroke-width="1.5" stroke-linecap="round" stroke-linejoin="round"/>
<path opacity="0.4" d="M19 178L18 182" stroke="white" stroke-width="1.5" stroke-linecap="round" stroke-linejoin="round"/>
<path opacity="0.4" d="M37 178L38 182" stroke="white" stroke-width="1.5" stroke-linecap="round" stroke-linejoin="round"/>
<path d="M28 226.75C27.59 226.75 27.25 226.41 27.25 226V225C27.25 224.59 27.59 224.25 28 224.25C28.41 224.25 28.75 224.59 28.75 225V226C28.75 226.41 28.41 226.75 28 226.75Z" fill="white"/>
<path d="M28 230.75C27.59 230.75 27.25 230.41 27.25 230V229C27.25 228.59 27.59 228.25 28 228.25C28.41 228.25 28.75 228.59 28.75 229V230C28.75 230.41 28.41 230.75 28 230.75Z" fill="white"/>
<path d="M18 230.75C17.94 230.75 17.88 230.74 17.82 230.73C17.42 230.63 17.17 230.22 17.27 229.82L18.27 225.82C18.37 225.42 18.77 225.17 19.18 225.27C19.58 225.37 19.83 225.78 19.73 226.18L18.73 230.18C18.64 230.52 18.34 230.75 18 230.75Z" fill="white"/>
<path d="M38 230.75C37.66 230.75 37.36 230.52 37.27 230.18L36.27 226.18C36.17 225.78 36.41 225.37 36.82 225.27C37.22 225.17 37.63 225.41 37.73 225.82L38.73 229.82C38.83 230.22 38.59 230.63 38.18 230.73C38.12 230.74 38.06 230.75 38 230.75Z" fill="white"/>
<path opacity="0.4" d="M35.26 217.52C35.15 216.34 34.84 215.09 32.55 215.09H23.45C21.16 215.09 20.85 216.35 20.74 217.52L20.34 221.86C20.29 222.4 20.47 222.94 20.84 223.35C21.22 223.76 21.76 224 22.32 224H23.66C24.81 224 25.03 223.34 25.18 222.9L25.32 222.47C25.48 221.98 25.52 221.86 26.17 221.86H29.82C30.46 221.86 30.48 221.93 30.67 222.47L30.81 222.9C30.96 223.34 31.18 224 32.33 224H33.67C34.23 224 34.77 223.76 35.15 223.35C35.52 222.95 35.7 222.4 35.65 221.86L35.26 217.52Z" fill="white"/>
<path d="M34.42 212.94H33.71C33.7 212.94 33.7 212.94 33.7 212.94L33.43 211.65C33.17 210.4 32.64 209.25 30.51 209.25H28.54H27.47H25.5C23.37 209.25 22.84 210.4 22.58 211.65L22.31 212.94C22.3 212.94 22.3 212.94 22.3 212.94H21.59C21.29 212.94 21.05 213.18 21.05 213.48C21.05 213.78 21.29 214.02 21.59 214.02H22.1L21.8 215.45C22.19 215.23 22.72 215.09 23.46 215.09H32.56C33.3 215.09 33.84 215.23 34.22 215.45L33.92 214.02H34.43C34.73 214.02 34.97 213.78 34.97 213.48C34.96 213.18 34.72 212.94 34.42 212.94Z" fill="white"/>
<path d="M25.86 219.01H23.72C23.42 219.01 23.18 218.77 23.18 218.47C23.18 218.17 23.42 217.93 23.72 217.93H25.86C26.16 217.93 26.4 218.17 26.4 218.47C26.39 218.77 26.15 219.01 25.86 219.01Z" fill="white"/>
<path d="M32.28 219.01H30.14C29.84 219.01 29.6 218.77 29.6 218.47C29.6 218.17 29.84 217.93 30.14 217.93H32.28C32.58 217.93 32.82 218.17 32.82 218.47C32.82 218.77 32.58 219.01 32.28 219.01Z" fill="white"/>
<path d="M27.28 258H25.45C23.65 258 23.25 258.9 23.02 260.01L22.2 263.93H33.8L32.98 260.01C32.75 258.91 32.35 258 30.55 258" stroke="white" stroke-width="1.5" stroke-linecap="round" stroke-linejoin="round"/>
<path d="M35.16 269.43L35.24 270.32C35.32 271.17 34.64 271.9 33.77 271.9H32.41C31.63 271.9 31.52 271.57 31.38 271.15L31.23 270.72C31.03 270.13 30.9 269.73 29.85 269.73H26.14C25.1 269.73 24.94 270.18 24.76 270.72L24.61 271.15C24.47 271.56 24.36 271.9 23.58 271.9H22.22C21.35 271.9 20.67 271.17 20.75 270.32L21.16 265.9C21.26 264.81 21.47 263.92 23.37 263.92H32.62C34.52 263.92 34.73 264.81 34.83 265.9" stroke="white" stroke-width="1.5" stroke-linecap="round" stroke-linejoin="round"/>
<path d="M22.2 261.75H21.47" stroke="white" stroke-width="1.5" stroke-linecap="round" stroke-linejoin="round"/>
<path d="M34.53 261.75H33.8" stroke="white" stroke-width="1.5" stroke-linecap="round" stroke-linejoin="round"/>
<path d="M23.65 266.83H25.82" stroke="white" stroke-width="1.5" stroke-linecap="round" stroke-linejoin="round"/>
<path d="M30.18 266.83H32.35" stroke="white" stroke-width="1.5" stroke-linecap="round" stroke-linejoin="round"/>
<path d="M28 273V274" stroke="white" stroke-width="1.5" stroke-linecap="round" stroke-linejoin="round"/>
<path d="M28 277V278" stroke="white" stroke-width="1.5" stroke-linecap="round" stroke-linejoin="round"/>
<path d="M19 274L18 278" stroke="white" stroke-width="1.5" stroke-linecap="round" stroke-linejoin="round"/>
<path d="M37 274L38 278" stroke="white" stroke-width="1.5" stroke-linecap="round" stroke-linejoin="round"/>
</svg>
