<svg width="34" height="34" viewBox="0 0 34 34" fill="none" xmlns="http://www.w3.org/2000/svg">
<path d="M28.8716 29.9342C28.5883 29.9342 28.3191 29.8209 28.1208 29.6225L19.0824 20.5842C18.6716 20.1734 18.6716 19.4934 19.0824 19.0825L30.0333 8.1317C30.3024 7.86254 30.7133 7.76337 31.0816 7.86253C31.4499 7.97587 31.7332 8.27337 31.8182 8.6417C32.0874 9.84587 32.2291 11.1917 32.2291 12.75V21.25C32.2291 25.1742 31.4074 27.8234 29.6224 29.6225C29.4241 29.8209 29.1266 29.8634 28.8716 29.9342ZM21.3349 19.8334L28.7866 27.285C29.6791 25.9109 30.1041 23.9559 30.1041 21.25V12.75C30.1041 12.1692 30.0899 11.6309 30.0474 11.1209L21.3349 19.8334Z" fill="white"/>
<path d="M8.88248 31.8466C8.79748 31.8466 8.72667 31.8325 8.64167 31.8183C3.9525 30.7417 1.77083 27.3841 1.77083 21.25V12.75C1.77083 5.05748 5.0575 1.77081 12.75 1.77081H21.25C27.3842 1.77081 30.7416 3.95249 31.8183 8.64165C31.9033 8.99582 31.79 9.37832 31.535 9.63332L9.63331 31.535C9.43498 31.7333 9.16581 31.8466 8.88248 31.8466ZM12.75 3.89581C6.21916 3.89581 3.89583 6.21915 3.89583 12.75V21.25C3.89583 26.1658 5.25584 28.6308 8.55667 29.6083L29.5942 8.57082C28.6308 5.26998 26.1516 3.90997 21.2358 3.90997H12.75V3.89581Z" fill="white"/>
<path d="M21.2498 32.2291H12.7498C11.1915 32.2291 9.85985 32.1017 8.64152 31.8183C8.25902 31.7333 7.96149 31.45 7.86233 31.0816C7.74899 30.7133 7.86233 30.3166 8.1315 30.0333L19.0823 19.0825C19.4932 18.6716 20.1732 18.6716 20.584 19.0825L29.6223 28.1208C29.8207 28.3192 29.934 28.5883 29.934 28.8716C29.934 29.155 29.8207 29.4241 29.6223 29.6225C27.8232 31.4075 25.174 32.2291 21.2498 32.2291ZM11.1207 30.0475C11.6307 30.09 12.169 30.1041 12.7498 30.1041H21.2498C23.9698 30.1041 25.9107 29.6792 27.2849 28.7867L19.8332 21.335L11.1207 30.0475Z" fill="white"/>
<path d="M12.9199 18.8558C12.0274 18.8558 11.1349 18.53 10.4266 17.8641C8.17407 15.725 7.26744 13.3733 7.80578 11.0783C8.34411 8.72664 10.3983 7.13995 12.9199 7.13995C15.4416 7.13995 17.4958 8.72664 18.0341 11.0783C18.5583 13.3875 17.6516 15.725 15.3991 17.8641C14.7049 18.5158 13.8124 18.8558 12.9199 18.8558ZM9.8741 11.5458C9.42076 13.4725 10.7241 15.2008 11.8999 16.32C12.4808 16.8725 13.3733 16.8725 13.9399 16.32C15.1016 15.215 16.4049 13.4866 15.9657 11.5458C15.5832 9.85995 14.0816 9.25079 12.9199 9.25079C11.7583 9.25079 10.2708 9.85995 9.8741 11.5458Z" fill="white"/>
<path d="M12.9624 13.4442C12.1832 13.4442 11.5457 12.8067 11.5457 12.0275C11.5457 11.2483 12.169 10.6108 12.9624 10.6108H12.9765C13.7557 10.6108 14.3932 11.2483 14.3932 12.0275C14.3932 12.8067 13.7415 13.4442 12.9624 13.4442Z" fill="white"/>
</svg>
