<svg width="56" height="296" viewBox="0 0 56 296" fill="none" xmlns="http://www.w3.org/2000/svg">
<rect x="0.5" y="0.5" width="55" height="295" rx="4.5" stroke="#7B61FF" stroke-dasharray="10 5"/>
<path d="M33 66H23C20.24 66 18 68.23 18 70.98V76.96V77.96C18 80.71 20.24 82.94 23 82.94H24.5C24.77 82.94 25.13 83.12 25.3 83.34L26.8 85.33C27.46 86.21 28.54 86.21 29.2 85.33L30.7 83.34C30.89 83.09 31.19 82.94 31.5 82.94H33C35.76 82.94 38 80.71 38 77.96V70.98C38 68.23 35.76 66 33 66ZM29 77.75H23C22.59 77.75 22.25 77.41 22.25 77C22.25 76.59 22.59 76.25 23 76.25H29C29.41 76.25 29.75 76.59 29.75 77C29.75 77.41 29.41 77.75 29 77.75ZM33 72.75H23C22.59 72.75 22.25 72.41 22.25 72C22.25 71.59 22.59 71.25 23 71.25H33C33.41 71.25 33.75 71.59 33.75 72C33.75 72.41 33.41 72.75 33 72.75Z" fill="white"/>
<path d="M28 134.81C27.31 134.81 26.66 134.46 26.2 133.85L24.7 131.85C24.67 131.81 24.55 131.76 24.5 131.75H24C19.83 131.75 17.25 130.62 17.25 125V120C17.25 115.58 19.58 113.25 24 113.25H32C36.42 113.25 38.75 115.58 38.75 120V125C38.75 129.42 36.42 131.75 32 131.75H31.5C31.42 131.75 31.35 131.79 31.3 131.85L29.8 133.85C29.34 134.46 28.69 134.81 28 134.81ZM24 114.75C20.42 114.75 18.75 116.42 18.75 120V125C18.75 129.52 20.3 130.25 24 130.25H24.5C25.01 130.25 25.59 130.54 25.9 130.95L27.4 132.95C27.75 133.41 28.25 133.41 28.6 132.95L30.1 130.95C30.43 130.51 30.95 130.25 31.5 130.25H32C35.58 130.25 37.25 128.58 37.25 125V120C37.25 116.42 35.58 114.75 32 114.75H24Z" fill="white"/>
<path d="M33 120.75H23C22.59 120.75 22.25 120.41 22.25 120C22.25 119.59 22.59 119.25 23 119.25H33C33.41 119.25 33.75 119.59 33.75 120C33.75 120.41 33.41 120.75 33 120.75Z" fill="white"/>
<path d="M29 125.75H23C22.59 125.75 22.25 125.41 22.25 125C22.25 124.59 22.59 124.25 23 124.25H29C29.41 124.25 29.75 124.59 29.75 125C29.75 125.41 29.41 125.75 29 125.75Z" fill="white"/>
<path d="M24.5 179H24C20 179 18 178 18 173V168C18 164 20 162 24 162H32C36 162 38 164 38 168V173C38 177 36 179 32 179H31.5C31.19 179 30.89 179.15 30.7 179.4L29.2 181.4C28.54 182.28 27.46 182.28 26.8 181.4L25.3 179.4C25.14 179.18 24.77 179 24.5 179Z" stroke="white" stroke-width="1.5" stroke-miterlimit="10" stroke-linecap="round" stroke-linejoin="round"/>
<path opacity="0.4" d="M23 168H33" stroke="white" stroke-width="1.5" stroke-linecap="round" stroke-linejoin="round"/>
<path opacity="0.4" d="M23 173H29" stroke="white" stroke-width="1.5" stroke-linecap="round" stroke-linejoin="round"/>
<path opacity="0.4" d="M18 220.97V214.99C18 212.23 20.24 210 23 210H33C35.76 210 38 212.23 38 214.99V221.97C38 224.72 35.76 226.95 33 226.95H31.5C31.19 226.95 30.89 227.1 30.7 227.35L29.2 229.34C28.54 230.22 27.46 230.22 26.8 229.34L25.3 227.35C25.14 227.13 24.78 226.95 24.5 226.95H23C20.24 226.95 18 224.72 18 221.97V220.97Z" fill="white"/>
<path d="M33 216.75H23C22.59 216.75 22.25 216.41 22.25 216C22.25 215.59 22.59 215.25 23 215.25H33C33.41 215.25 33.75 215.59 33.75 216C33.75 216.41 33.41 216.75 33 216.75Z" fill="white"/>
<path d="M29 221.75H23C22.59 221.75 22.25 221.41 22.25 221C22.25 220.59 22.59 220.25 23 220.25H29C29.41 220.25 29.75 220.59 29.75 221C29.75 221.41 29.41 221.75 29 221.75Z" fill="white"/>
<path d="M18 264C18 260 20 258 24 258H32C36 258 38 260 38 264V269C38 273 36 275 32 275H31.5C31.19 275 30.89 275.15 30.7 275.4L29.2 277.4C28.54 278.28 27.46 278.28 26.8 277.4L25.3 275.4C25.14 275.18 24.77 275 24.5 275H24C20 275 18 274 18 269V268" stroke="white" stroke-width="1.5" stroke-miterlimit="10" stroke-linecap="round" stroke-linejoin="round"/>
<path d="M31.99 264H33" stroke="white" stroke-width="1.5" stroke-linecap="round" stroke-linejoin="round"/>
<path d="M23 264H28.51" stroke="white" stroke-width="1.5" stroke-linecap="round" stroke-linejoin="round"/>
<path d="M23 269H29" stroke="white" stroke-width="1.5" stroke-linecap="round" stroke-linejoin="round"/>
</svg>
