<svg width="34" height="34" viewBox="0 0 34 34" fill="none" xmlns="http://www.w3.org/2000/svg">
<path d="M8.89667 31.1667C11.3378 31.1667 13.3167 29.1878 13.3167 26.7467C13.3167 24.3056 11.3378 22.3267 8.89667 22.3267C6.45557 22.3267 4.47667 24.3056 4.47667 26.7467C4.47667 29.1878 6.45557 31.1667 8.89667 31.1667Z" stroke="white" stroke-width="1.5" stroke-linecap="round" stroke-linejoin="round"/>
<path d="M29.5233 23.7999V6.51662C29.5233 2.83328 27.2142 2.32328 24.8767 2.96078L16.0367 5.36912C14.4217 5.80828 13.3167 7.08328 13.3167 8.92495V11.9991V14.0674V26.7324" stroke="white" stroke-width="1.5" stroke-linecap="round" stroke-linejoin="round"/>
<path d="M25.1033 28.22C27.5444 28.22 29.5233 26.2411 29.5233 23.8C29.5233 21.3589 27.5444 19.38 25.1033 19.38C22.6622 19.38 20.6833 21.3589 20.6833 23.8C20.6833 26.2411 22.6622 28.22 25.1033 28.22Z" stroke="white" stroke-width="1.5" stroke-linecap="round" stroke-linejoin="round"/>
<path d="M13.3167 13.4867L29.5233 9.06665" stroke="white" stroke-width="1.5" stroke-linecap="round" stroke-linejoin="round"/>
</svg>
