<svg width="34" height="34" viewBox="0 0 34 34" fill="none" xmlns="http://www.w3.org/2000/svg">
<path d="M31.1242 25.9675C31.1242 26.4775 31.0108 27.0017 30.77 27.5117C30.5292 28.0217 30.2175 28.5034 29.8067 28.9567C29.1125 29.7217 28.3475 30.2742 27.4833 30.6284C26.6333 30.9825 25.7125 31.1667 24.7208 31.1667C23.2758 31.1667 21.7317 30.8267 20.1025 30.1325C18.4733 29.4384 16.8442 28.5034 15.2292 27.3275C13.6 26.1375 12.0558 24.82 10.5825 23.3609C9.12333 21.8875 7.80583 20.3434 6.62999 18.7284C5.46833 17.1134 4.53333 15.4984 3.85333 13.8975C3.17333 12.2825 2.83333 10.7384 2.83333 9.26504C2.83333 8.30171 3.00333 7.38087 3.34333 6.53087C3.68333 5.66671 4.22166 4.87337 4.97249 4.16504C5.87916 3.27254 6.87083 2.83337 7.91916 2.83337C8.31583 2.83337 8.71249 2.91837 9.06666 3.08837C9.43499 3.25837 9.76083 3.51337 10.0158 3.88171L13.3025 8.51421C13.5575 8.86837 13.7417 9.19421 13.8692 9.50587C13.9967 9.80337 14.0675 10.1009 14.0675 10.37C14.0675 10.71 13.9683 11.05 13.77 11.3759C13.5858 11.7017 13.3167 12.0417 12.9767 12.3817L11.9 13.5009C11.7442 13.6567 11.6733 13.8409 11.6733 14.0675C11.6733 14.1809 11.6875 14.28 11.7158 14.3934C11.7583 14.5067 11.8008 14.5917 11.8292 14.6767C12.0842 15.1442 12.5233 15.7534 13.1467 16.49C13.7842 17.2267 14.4642 17.9775 15.2008 18.7284C15.9658 19.4792 16.7025 20.1734 17.4533 20.8109C18.19 21.4342 18.7992 21.8592 19.2808 22.1142C19.3517 22.1425 19.4367 22.185 19.5358 22.2275C19.6492 22.27 19.7625 22.2842 19.89 22.2842C20.1308 22.2842 20.315 22.1992 20.4708 22.0434L21.5475 20.9809C21.9017 20.6267 22.2417 20.3575 22.5675 20.1875C22.8933 19.9892 23.2192 19.89 23.5733 19.89C23.8425 19.89 24.1258 19.9467 24.4375 20.0742C24.7492 20.2017 25.075 20.3859 25.4292 20.6267L30.1183 23.9559C30.4867 24.2109 30.7417 24.5084 30.8975 24.8625C31.0392 25.2167 31.1242 25.5709 31.1242 25.9675Z" stroke="white" stroke-width="1.5" stroke-miterlimit="10"/>
<path d="M26.2083 12.7501C26.2083 11.9001 25.5425 10.5967 24.5508 9.53425C23.6442 8.55675 22.44 7.79175 21.25 7.79175" stroke="white" stroke-width="1.5" stroke-linecap="round" stroke-linejoin="round"/>
<path d="M31.1667 12.75C31.1667 7.26754 26.7325 2.83337 21.25 2.83337" stroke="white" stroke-width="1.5" stroke-linecap="round" stroke-linejoin="round"/>
</svg>
