<svg width="56" height="314" viewBox="0 0 56 314" fill="none" xmlns="http://www.w3.org/2000/svg">
<rect x="0.5" y="0.5" width="55" height="313" rx="4.5" stroke="#7B61FF" stroke-dasharray="10 5"/>
<path d="M33 21H23C20 21 18 23 18 26V33C18 36 20 38 23 38H33C36 38 38 36 38 33V26C38 23 36 21 33 21Z" stroke="white" stroke-width="1.5" stroke-linecap="round" stroke-linejoin="round"/>
<path d="M23 18V21" stroke="white" stroke-width="1.5" stroke-linecap="round" stroke-linejoin="round"/>
<path d="M24.5 32C25.8807 32 27 30.8807 27 29.5C27 28.1193 25.8807 27 24.5 27C23.1193 27 22 28.1193 22 29.5C22 30.8807 23.1193 32 24.5 32Z" stroke="white" stroke-width="1.5" stroke-linecap="round" stroke-linejoin="round"/>
<path d="M30.5 27H34.5" stroke="white" stroke-width="1.5" stroke-linecap="round" stroke-linejoin="round"/>
<path d="M30.5 31H31" stroke="white" stroke-width="1.5" stroke-linecap="round" stroke-linejoin="round"/>
<path d="M34 31H34.5" stroke="white" stroke-width="1.5" stroke-linecap="round" stroke-linejoin="round"/>
<path d="M23.75 66V69H23C22.74 69 22.49 69.01 22.25 69.05V66C22.25 65.59 22.59 65.25 23 65.25C23.41 65.25 23.75 65.59 23.75 66Z" fill="white"/>
<path d="M33 69H23C22.74 69 22.49 69.01 22.25 69.05C19.67 69.35 18 71.26 18 74V81C18 84 20 86 23 86H33C36 86 38 84 38 81V74C38 71 36 69 33 69ZM23.88 80C22.5 80 21.38 78.88 21.38 77.5C21.38 76.12 22.5 75 23.88 75C25.26 75 26.38 76.12 26.38 77.5C26.38 78.88 25.26 80 23.88 80ZM30.38 80.25H29.88C29.47 80.25 29.13 79.91 29.13 79.5C29.13 79.09 29.47 78.75 29.88 78.75H30.38C30.79 78.75 31.13 79.09 31.13 79.5C31.13 79.91 30.79 80.25 30.38 80.25ZM33.88 80.25H33.38C32.97 80.25 32.63 79.91 32.63 79.5C32.63 79.09 32.97 78.75 33.38 78.75H33.88C34.29 78.75 34.63 79.09 34.63 79.5C34.63 79.91 34.29 80.25 33.88 80.25ZM33.88 76.25H29.88C29.47 76.25 29.13 75.91 29.13 75.5C29.13 75.09 29.47 74.75 29.88 74.75H33.88C34.29 74.75 34.63 75.09 34.63 75.5C34.63 75.91 34.29 76.25 33.88 76.25Z" fill="white"/>
<path d="M33 134.75H23C19.56 134.75 17.25 132.44 17.25 129V122C17.25 118.56 19.56 116.25 23 116.25H33C36.44 116.25 38.75 118.56 38.75 122V129C38.75 132.44 36.44 134.75 33 134.75ZM23 117.75C20.42 117.75 18.75 119.42 18.75 122V129C18.75 131.58 20.42 133.25 23 133.25H33C35.58 133.25 37.25 131.58 37.25 129V122C37.25 119.42 35.58 117.75 33 117.75H23Z" fill="white"/>
<path d="M23 117.75C22.59 117.75 22.25 117.41 22.25 117V114C22.25 113.59 22.59 113.25 23 113.25C23.41 113.25 23.75 113.59 23.75 114V117C23.75 117.41 23.41 117.75 23 117.75Z" fill="white"/>
<path d="M24.5 128.75C22.71 128.75 21.25 127.29 21.25 125.5C21.25 123.71 22.71 122.25 24.5 122.25C26.29 122.25 27.75 123.71 27.75 125.5C27.75 127.29 26.29 128.75 24.5 128.75ZM24.5 123.75C23.54 123.75 22.75 124.54 22.75 125.5C22.75 126.46 23.54 127.25 24.5 127.25C25.46 127.25 26.25 126.46 26.25 125.5C26.25 124.54 25.46 123.75 24.5 123.75Z" fill="white"/>
<path d="M34.5 123.75H30.5C30.09 123.75 29.75 123.41 29.75 123C29.75 122.59 30.09 122.25 30.5 122.25H34.5C34.91 122.25 35.25 122.59 35.25 123C35.25 123.41 34.91 123.75 34.5 123.75Z" fill="white"/>
<path d="M31 127.75H30.5C30.09 127.75 29.75 127.41 29.75 127C29.75 126.59 30.09 126.25 30.5 126.25H31C31.41 126.25 31.75 126.59 31.75 127C31.75 127.41 31.41 127.75 31 127.75Z" fill="white"/>
<path d="M34.5 127.75H34C33.59 127.75 33.25 127.41 33.25 127C33.25 126.59 33.59 126.25 34 126.25H34.5C34.91 126.25 35.25 126.59 35.25 127C35.25 127.41 34.91 127.75 34.5 127.75Z" fill="white"/>
<path d="M33 165H23C20 165 18 167 18 170V177C18 180 20 182 23 182H33C36 182 38 180 38 177V170C38 167 36 165 33 165Z" stroke="white" stroke-width="1.5" stroke-linecap="round" stroke-linejoin="round"/>
<path d="M23 162V165" stroke="white" stroke-width="1.5" stroke-linecap="round" stroke-linejoin="round"/>
<path opacity="0.4" d="M24.5 176C25.8807 176 27 174.881 27 173.5C27 172.119 25.8807 171 24.5 171C23.1193 171 22 172.119 22 173.5C22 174.881 23.1193 176 24.5 176Z" stroke="white" stroke-width="1.5" stroke-linecap="round" stroke-linejoin="round"/>
<path opacity="0.4" d="M30.5 171H34.5" stroke="white" stroke-width="1.5" stroke-linecap="round" stroke-linejoin="round"/>
<path opacity="0.4" d="M30.5 175H31" stroke="white" stroke-width="1.5" stroke-linecap="round" stroke-linejoin="round"/>
<path opacity="0.4" d="M34 175H34.5" stroke="white" stroke-width="1.5" stroke-linecap="round" stroke-linejoin="round"/>
<path opacity="0.4" d="M38 218V225C38 228 36 230 33 230H23C20 230 18 228 18 225V218C18 215.26 19.67 213.35 22.25 213.05C22.49 213.01 22.74 213 23 213H33C36 213 38 215 38 218Z" fill="white"/>
<path d="M23.75 210V213H23C22.74 213 22.49 213.01 22.25 213.05V210C22.25 209.59 22.59 209.25 23 209.25C23.41 209.25 23.75 209.59 23.75 210Z" fill="white"/>
<path d="M23.88 224C25.2607 224 26.38 222.881 26.38 221.5C26.38 220.119 25.2607 219 23.88 219C22.4993 219 21.38 220.119 21.38 221.5C21.38 222.881 22.4993 224 23.88 224Z" fill="white"/>
<path d="M33.88 220.25H29.88C29.47 220.25 29.13 219.91 29.13 219.5C29.13 219.09 29.47 218.75 29.88 218.75H33.88C34.29 218.75 34.63 219.09 34.63 219.5C34.63 219.91 34.29 220.25 33.88 220.25Z" fill="white"/>
<path d="M30.38 224.25H29.88C29.47 224.25 29.13 223.91 29.13 223.5C29.13 223.09 29.47 222.75 29.88 222.75H30.38C30.79 222.75 31.13 223.09 31.13 223.5C31.13 223.91 30.79 224.25 30.38 224.25Z" fill="white"/>
<path d="M33.88 224.25H33.38C32.97 224.25 32.63 223.91 32.63 223.5C32.63 223.09 32.97 222.75 33.38 222.75H33.88C34.29 222.75 34.63 223.09 34.63 223.5C34.63 223.91 34.29 224.25 33.88 224.25Z" fill="white"/>
<path d="M18 270.05V273C18 276 20 278 23 278H33C36 278 38 276 38 273V266C38 263 36 261 33 261H23C20 261 18 263 18 266" stroke="white" stroke-width="1.5" stroke-linecap="round" stroke-linejoin="round"/>
<path d="M23 258V261" stroke="white" stroke-width="1.5" stroke-linecap="round" stroke-linejoin="round"/>
<path d="M24.5 272C23.12 272 22 270.88 22 269.5C22 268.12 23.12 267 24.5 267C25.88 267 27 268.12 27 269.5" stroke="white" stroke-width="1.5" stroke-linecap="round" stroke-linejoin="round"/>
<path d="M30.5 267H34.5" stroke="white" stroke-width="1.5" stroke-linecap="round" stroke-linejoin="round"/>
<path d="M30.5 271H31" stroke="white" stroke-width="1.5" stroke-linecap="round" stroke-linejoin="round"/>
<path d="M34 271H34.5" stroke="white" stroke-width="1.5" stroke-linecap="round" stroke-linejoin="round"/>
</svg>
