<svg width="34" height="34" viewBox="0 0 34 34" fill="none" xmlns="http://www.w3.org/2000/svg">
<path d="M17 21.25C19.3472 21.25 21.25 19.3472 21.25 17C21.25 14.6528 19.3472 12.75 17 12.75C14.6528 12.75 12.75 14.6528 12.75 17C12.75 19.3472 14.6528 21.25 17 21.25Z" stroke="white" stroke-width="1.5" stroke-miterlimit="10" stroke-linecap="round" stroke-linejoin="round"/>
<path d="M2.83331 18.2467V15.7534C2.83331 14.2801 4.03748 13.0617 5.52498 13.0617C8.08915 13.0617 9.13748 11.2484 7.84831 9.02424C7.11165 7.74924 7.55081 6.09174 8.83998 5.35507L11.2908 3.95257C12.41 3.28674 13.855 3.68341 14.5208 4.80257L14.6766 5.07174C15.9516 7.29591 18.0483 7.29591 19.3375 5.07174L19.4933 4.80257C20.1591 3.68341 21.6041 3.28674 22.7233 3.95257L25.1741 5.35507C26.4633 6.09174 26.9025 7.74924 26.1658 9.02424C24.8766 11.2484 25.925 13.0617 28.4891 13.0617C29.9625 13.0617 31.1808 14.2659 31.1808 15.7534V18.2467C31.1808 19.7201 29.9766 20.9384 28.4891 20.9384C25.925 20.9384 24.8766 22.7517 26.1658 24.9759C26.9025 26.2651 26.4633 27.9084 25.1741 28.6451L22.7233 30.0476C21.6041 30.7134 20.1591 30.3167 19.4933 29.1976L19.3375 28.9284C18.0625 26.7042 15.9658 26.7042 14.6766 28.9284L14.5208 29.1976C13.855 30.3167 12.41 30.7134 11.2908 30.0476L8.83998 28.6451C7.55081 27.9084 7.11165 26.2509 7.84831 24.9759C9.13748 22.7517 8.08915 20.9384 5.52498 20.9384C4.03748 20.9384 2.83331 19.7201 2.83331 18.2467Z" stroke="white" stroke-width="1.5" stroke-miterlimit="10" stroke-linecap="round" stroke-linejoin="round"/>
</svg>
