<svg width="56" height="296" viewBox="0 0 56 296" fill="none" xmlns="http://www.w3.org/2000/svg">
<rect x="0.5" y="0.5" width="55" height="295" rx="4.5" stroke="#7B61FF" stroke-dasharray="10 5"/>
<path d="M28 31C29.6569 31 31 29.6569 31 28C31 26.3431 29.6569 25 28 25C26.3431 25 25 26.3431 25 28C25 29.6569 26.3431 31 28 31Z" stroke="white" stroke-width="1.5" stroke-miterlimit="10" stroke-linecap="round" stroke-linejoin="round"/>
<path d="M18 28.8799V27.1199C18 26.0799 18.85 25.2199 19.9 25.2199C21.71 25.2199 22.45 23.9399 21.54 22.3699C21.02 21.4699 21.33 20.2999 22.24 19.7799L23.97 18.7899C24.76 18.3199 25.78 18.5999 26.25 19.3899L26.36 19.5799C27.26 21.1499 28.74 21.1499 29.65 19.5799L29.76 19.3899C30.23 18.5999 31.25 18.3199 32.04 18.7899L33.77 19.7799C34.68 20.2999 34.99 21.4699 34.47 22.3699C33.56 23.9399 34.3 25.2199 36.11 25.2199C37.15 25.2199 38.01 26.0699 38.01 27.1199V28.8799C38.01 29.9199 37.16 30.7799 36.11 30.7799C34.3 30.7799 33.56 32.0599 34.47 33.6299C34.99 34.5399 34.68 35.6999 33.77 36.2199L32.04 37.2099C31.25 37.6799 30.23 37.3999 29.76 36.6099L29.65 36.4199C28.75 34.8499 27.27 34.8499 26.36 36.4199L26.25 36.6099C25.78 37.3999 24.76 37.6799 23.97 37.2099L22.24 36.2199C21.33 35.6999 21.02 34.5299 21.54 33.6299C22.45 32.0599 21.71 30.7799 19.9 30.7799C18.85 30.7799 18 29.9199 18 28.8799Z" stroke="white" stroke-width="1.5" stroke-miterlimit="10" stroke-linecap="round" stroke-linejoin="round"/>
<path d="M36.1 73.2199C34.29 73.2199 33.55 71.9399 34.45 70.3699C34.97 69.4599 34.66 68.2999 33.75 67.7799L32.02 66.7899C31.23 66.3199 30.21 66.5999 29.74 67.3899L29.63 67.5799C28.73 69.1499 27.25 69.1499 26.34 67.5799L26.23 67.3899C25.78 66.5999 24.76 66.3199 23.97 66.7899L22.24 67.7799C21.33 68.2999 21.02 69.4699 21.54 70.3799C22.45 71.9399 21.71 73.2199 19.9 73.2199C18.86 73.2199 18 74.0699 18 75.1199V76.8799C18 77.9199 18.85 78.7799 19.9 78.7799C21.71 78.7799 22.45 80.0599 21.54 81.6299C21.02 82.5399 21.33 83.6999 22.24 84.2199L23.97 85.2099C24.76 85.6799 25.78 85.3999 26.25 84.6099L26.36 84.4199C27.26 82.8499 28.74 82.8499 29.65 84.4199L29.76 84.6099C30.23 85.3999 31.25 85.6799 32.04 85.2099L33.77 84.2199C34.68 83.6999 34.99 82.5299 34.47 81.6299C33.56 80.0599 34.3 78.7799 36.11 78.7799C37.15 78.7799 38.01 77.9299 38.01 76.8799V75.1199C38 74.0799 37.15 73.2199 36.1 73.2199ZM28 79.2499C26.21 79.2499 24.75 77.7899 24.75 75.9999C24.75 74.2099 26.21 72.7499 28 72.7499C29.79 72.7499 31.25 74.2099 31.25 75.9999C31.25 77.7899 29.79 79.2499 28 79.2499Z" fill="white"/>
<path d="M28 127.75C25.93 127.75 24.25 126.07 24.25 124C24.25 121.93 25.93 120.25 28 120.25C30.07 120.25 31.75 121.93 31.75 124C31.75 126.07 30.07 127.75 28 127.75ZM28 121.75C26.76 121.75 25.75 122.76 25.75 124C25.75 125.24 26.76 126.25 28 126.25C29.24 126.25 30.25 125.24 30.25 124C30.25 122.76 29.24 121.75 28 121.75Z" fill="white"/>
<path d="M31.21 134.19C31 134.19 30.79 134.16 30.58 134.11C29.96 133.94 29.44 133.55 29.11 133L28.99 132.8C28.4 131.78 27.59 131.78 27 132.8L26.89 132.99C26.56 133.55 26.04 133.95 25.42 134.11C24.79 134.28 24.14 134.19 23.59 133.86L21.87 132.87C21.26 132.52 20.82 131.95 20.63 131.26C20.45 130.57 20.54 129.86 20.89 129.25C21.18 128.74 21.26 128.28 21.09 127.99C20.92 127.7 20.49 127.53 19.9 127.53C18.44 127.53 17.25 126.34 17.25 124.88V123.12C17.25 121.66 18.44 120.47 19.9 120.47C20.49 120.47 20.92 120.3 21.09 120.01C21.26 119.72 21.19 119.26 20.89 118.75C20.54 118.14 20.45 117.42 20.63 116.74C20.81 116.05 21.25 115.48 21.87 115.13L23.6 114.14C24.73 113.47 26.22 113.86 26.9 115.01L27.02 115.21C27.61 116.23 28.42 116.23 29.01 115.21L29.12 115.02C29.8 113.86 31.29 113.47 32.43 114.15L34.15 115.14C34.76 115.49 35.2 116.06 35.39 116.75C35.57 117.44 35.48 118.15 35.13 118.76C34.84 119.27 34.76 119.73 34.93 120.02C35.1 120.31 35.53 120.48 36.12 120.48C37.58 120.48 38.77 121.67 38.77 123.13V124.89C38.77 126.35 37.58 127.54 36.12 127.54C35.53 127.54 35.1 127.71 34.93 128C34.76 128.29 34.83 128.75 35.13 129.26C35.48 129.87 35.58 130.59 35.39 131.27C35.21 131.96 34.77 132.53 34.15 132.88L32.42 133.87C32.04 134.08 31.63 134.19 31.21 134.19ZM28 130.49C28.89 130.49 29.72 131.05 30.29 132.04L30.4 132.23C30.52 132.44 30.72 132.59 30.96 132.65C31.2 132.71 31.44 132.68 31.64 132.56L33.37 131.56C33.63 131.41 33.83 131.16 33.91 130.86C33.99 130.56 33.95 130.25 33.8 129.99C33.23 129.01 33.16 128 33.6 127.23C34.04 126.46 34.95 126.02 36.09 126.02C36.73 126.02 37.24 125.51 37.24 124.87V123.11C37.24 122.48 36.73 121.96 36.09 121.96C34.95 121.96 34.04 121.52 33.6 120.75C33.16 119.98 33.23 118.97 33.8 117.99C33.95 117.73 33.99 117.42 33.91 117.12C33.83 116.82 33.64 116.58 33.38 116.42L31.65 115.43C31.22 115.17 30.65 115.32 30.39 115.76L30.28 115.95C29.71 116.94 28.88 117.5 27.99 117.5C27.1 117.5 26.27 116.94 25.7 115.95L25.59 115.75C25.34 115.33 24.78 115.18 24.35 115.43L22.62 116.43C22.36 116.58 22.16 116.83 22.08 117.13C22 117.43 22.04 117.74 22.19 118C22.76 118.98 22.83 119.99 22.39 120.76C21.95 121.53 21.04 121.97 19.9 121.97C19.26 121.97 18.75 122.48 18.75 123.12V124.88C18.75 125.51 19.26 126.03 19.9 126.03C21.04 126.03 21.95 126.47 22.39 127.24C22.83 128.01 22.76 129.02 22.19 130C22.04 130.26 22 130.57 22.08 130.87C22.16 131.17 22.35 131.41 22.61 131.57L24.34 132.56C24.55 132.69 24.8 132.72 25.03 132.66C25.27 132.6 25.47 132.44 25.6 132.23L25.71 132.04C26.28 131.06 27.11 130.49 28 130.49Z" fill="white"/>
<path opacity="0.34" d="M28 175C29.6569 175 31 173.657 31 172C31 170.343 29.6569 169 28 169C26.3431 169 25 170.343 25 172C25 173.657 26.3431 175 28 175Z" stroke="white" stroke-width="1.5" stroke-miterlimit="10" stroke-linecap="round" stroke-linejoin="round"/>
<path d="M18 172.88V171.12C18 170.08 18.85 169.22 19.9 169.22C21.71 169.22 22.45 167.94 21.54 166.37C21.02 165.47 21.33 164.3 22.24 163.78L23.97 162.79C24.76 162.32 25.78 162.6 26.25 163.39L26.36 163.58C27.26 165.15 28.74 165.15 29.65 163.58L29.76 163.39C30.23 162.6 31.25 162.32 32.04 162.79L33.77 163.78C34.68 164.3 34.99 165.47 34.47 166.37C33.56 167.94 34.3 169.22 36.11 169.22C37.15 169.22 38.01 170.07 38.01 171.12V172.88C38.01 173.92 37.16 174.78 36.11 174.78C34.3 174.78 33.56 176.06 34.47 177.63C34.99 178.54 34.68 179.7 33.77 180.22L32.04 181.21C31.25 181.68 30.23 181.4 29.76 180.61L29.65 180.42C28.75 178.85 27.27 178.85 26.36 180.42L26.25 180.61C25.78 181.4 24.76 181.68 23.97 181.21L22.24 180.22C21.33 179.7 21.02 178.53 21.54 177.63C22.45 176.06 21.71 174.78 19.9 174.78C18.85 174.78 18 173.92 18 172.88Z" stroke="white" stroke-width="1.5" stroke-miterlimit="10" stroke-linecap="round" stroke-linejoin="round"/>
<path opacity="0.4" d="M18 220.88V219.12C18 218.08 18.85 217.22 19.9 217.22C21.71 217.22 22.45 215.94 21.54 214.37C21.02 213.47 21.33 212.3 22.24 211.78L23.97 210.79C24.76 210.32 25.78 210.6 26.25 211.39L26.36 211.58C27.26 213.15 28.74 213.15 29.65 211.58L29.76 211.39C30.23 210.6 31.25 210.32 32.04 210.79L33.77 211.78C34.68 212.3 34.99 213.47 34.47 214.37C33.56 215.94 34.3 217.22 36.11 217.22C37.15 217.22 38.01 218.07 38.01 219.12V220.88C38.01 221.92 37.16 222.78 36.11 222.78C34.3 222.78 33.56 224.06 34.47 225.63C34.99 226.54 34.68 227.7 33.77 228.22L32.04 229.21C31.25 229.68 30.23 229.4 29.76 228.61L29.65 228.42C28.75 226.85 27.27 226.85 26.36 228.42L26.25 228.61C25.78 229.4 24.76 229.68 23.97 229.21L22.24 228.22C21.33 227.7 21.02 226.53 21.54 225.63C22.45 224.06 21.71 222.78 19.9 222.78C18.85 222.78 18 221.92 18 220.88Z" fill="white"/>
<path d="M28 223.25C29.7949 223.25 31.25 221.795 31.25 220C31.25 218.205 29.7949 216.75 28 216.75C26.2051 216.75 24.75 218.205 24.75 220C24.75 221.795 26.2051 223.25 28 223.25Z" fill="white"/>
<path d="M31 268C31 266.34 29.66 265 28 265C26.34 265 25 266.34 25 268C25 269.66 26.34 271 28 271C28.41 271 28.81 270.92 29.17 270.76" stroke="white" stroke-width="1.5" stroke-miterlimit="10" stroke-linecap="round" stroke-linejoin="round"/>
<path d="M22.88 276.58L23.97 277.21C24.76 277.68 25.78 277.4 26.25 276.61L26.36 276.42C27.26 274.85 28.74 274.85 29.65 276.42L29.76 276.61C30.23 277.4 31.25 277.68 32.04 277.21L33.77 276.22C34.68 275.7 34.99 274.53 34.47 273.63C33.56 272.06 34.3 270.78 36.11 270.78C37.15 270.78 38.01 269.93 38.01 268.88V267.12C38.01 266.08 37.16 265.22 36.11 265.22C35.1 265.22 34.42 264.82 34.18 264.19C33.99 263.7 34.07 263.06 34.47 262.37C34.99 261.46 34.68 260.3 33.77 259.78L32.96 259.32" stroke="white" stroke-width="1.5" stroke-miterlimit="10" stroke-linecap="round" stroke-linejoin="round"/>
<path d="M29.64 259.58C28.74 261.15 27.26 261.15 26.35 259.58L26.24 259.39C25.78 258.6 24.76 258.32 23.97 258.79L22.24 259.78C21.33 260.3 21.02 261.47 21.54 262.38C22.45 263.94 21.71 265.22 19.9 265.22C18.86 265.22 18 266.07 18 267.12V268.88C18 269.92 18.85 270.78 19.9 270.78C21.71 270.78 22.45 272.06 21.54 273.63" stroke="white" stroke-width="1.5" stroke-miterlimit="10" stroke-linecap="round" stroke-linejoin="round"/>
</svg>
