<svg width="56" height="296" viewBox="0 0 56 296" fill="none" xmlns="http://www.w3.org/2000/svg">
<rect x="0.5" y="0.5" width="55" height="295" rx="4.5" stroke="#7B61FF" stroke-dasharray="10 5"/>
<path d="M28.14 23.6201H22.87C21.01 23.6201 20.59 24.5501 20.36 25.7001L19.51 29.7501H31.51L30.66 25.7001C30.41 24.5501 30 23.6201 28.14 23.6201Z" stroke="white" stroke-width="1.5" stroke-linecap="round" stroke-linejoin="round"/>
<path d="M32.99 36.3602C33.07 37.2402 32.37 38.0002 31.47 38.0002H30.06C29.25 38.0002 29.14 37.6502 28.99 37.2302L28.84 36.7803C28.63 36.1703 28.49 35.7502 27.41 35.7502H23.57C22.49 35.7502 22.33 36.2203 22.14 36.7803L21.99 37.2302C21.85 37.6602 21.74 38.0002 20.92 38.0002H19.51C18.61 38.0002 17.9 37.2402 17.99 36.3602L18.41 31.7902C18.52 30.6602 18.73 29.7402 20.7 29.7402H30.27C32.24 29.7402 32.45 30.6602 32.56 31.7902L32.99 36.3602Z" stroke="white" stroke-width="1.5" stroke-linecap="round" stroke-linejoin="round"/>
<path d="M19.5 27.5H18.75" stroke="white" stroke-width="1.5" stroke-linecap="round" stroke-linejoin="round"/>
<path d="M32.25 27.5H31.5" stroke="white" stroke-width="1.5" stroke-linecap="round" stroke-linejoin="round"/>
<path d="M21 32.75H23.25" stroke="white" stroke-width="1.5" stroke-linecap="round" stroke-linejoin="round"/>
<path d="M27.75 32.75H30" stroke="white" stroke-width="1.5" stroke-linecap="round" stroke-linejoin="round"/>
<path d="M34.71 24.7399C34.99 24.0899 34.89 23.2099 34.37 22.4399C33.86 21.6699 33.08 21.2399 32.37 21.2499" stroke="white" stroke-width="1.5" stroke-linecap="round" stroke-linejoin="round"/>
<path d="M37.82 25.73C38.24 24.22 37.94 22.37 36.87 20.77C35.8 19.17 34.2 18.19 32.64 18" stroke="white" stroke-width="1.5" stroke-linecap="round" stroke-linejoin="round"/>
<path d="M34.71 73.49C34.61 73.49 34.51 73.47 34.41 73.43C34.03 73.26 33.86 72.82 34.02 72.44C34.21 72.01 34.1 71.38 33.75 70.86C33.4 70.33 32.87 69.97 32.39 70C31.95 70 31.64 69.67 31.63 69.26C31.63 68.84 31.96 68.51 32.37 68.5C33.4 68.48 34.37 69.07 35 70.02C35.64 70.98 35.79 72.13 35.4 73.03C35.28 73.32 35 73.49 34.71 73.49Z" fill="white"/>
<path d="M37.82 74.4801C37.75 74.4801 37.69 74.4701 37.62 74.4501C37.22 74.3401 36.99 73.9301 37.1 73.5301C37.48 72.1701 37.16 70.5501 36.25 69.1901C35.34 67.8301 33.96 66.9201 32.55 66.7501C32.14 66.7001 31.85 66.3301 31.9 65.9201C31.95 65.5101 32.33 65.2101 32.73 65.2701C34.56 65.4901 36.34 66.6501 37.49 68.3701C38.64 70.0901 39.03 72.1701 38.54 73.9501C38.45 74.2601 38.15 74.4801 37.82 74.4801Z" fill="white"/>
<path d="M33.12 75.78C33.12 76.08 32.87 76.33 32.57 76.33H19.43C19.13 76.33 18.88 76.08 18.88 75.78C18.88 75.48 19.13 75.23 19.43 75.23H20.17L20.45 73.91C20.71 72.63 21.26 71.46 23.44 71.46H28.57C30.75 71.46 31.29 72.64 31.56 73.91L31.84 75.23H32.58C32.87 75.23 33.12 75.48 33.12 75.78Z" fill="white"/>
<path d="M33.43 79.9099C33.32 78.7099 33 77.4199 30.66 77.4199H21.34C19 77.4199 18.68 78.7099 18.57 79.9099L18.16 84.3599C18.11 84.9099 18.29 85.4699 18.67 85.8899C19.06 86.3099 19.6 86.5499 20.19 86.5499H21.56C22.74 86.5499 22.97 85.8699 23.12 85.4299L23.27 84.9899C23.44 84.4899 23.48 84.3599 24.14 84.3599H27.88C28.54 84.3599 28.56 84.4299 28.75 84.9899L28.9 85.4299C29.05 85.8799 29.27 86.5499 30.46 86.5499H31.83C32.41 86.5499 32.96 86.3099 33.35 85.8899C33.73 85.4699 33.91 84.9199 33.86 84.3599L33.43 79.9099ZM23.81 81.4299H21.62C21.32 81.4299 21.07 81.1799 21.07 80.8799C21.07 80.5799 21.32 80.3299 21.62 80.3299H23.81C24.11 80.3299 24.36 80.5799 24.36 80.8799C24.36 81.1799 24.11 81.4299 23.81 81.4299ZM30.38 81.4299H28.19C27.89 81.4299 27.64 81.1799 27.64 80.8799C27.64 80.5799 27.89 80.3299 28.19 80.3299H30.38C30.68 80.3299 30.93 80.5799 30.93 80.8799C30.93 81.1799 30.68 81.4299 30.38 81.4299Z" fill="white"/>
<path d="M31.4999 126.5H19.4999C19.2699 126.5 19.0599 126.4 18.9199 126.22C18.7799 126.05 18.7199 125.81 18.7699 125.59L19.6198 121.54C19.8998 120.22 20.4998 118.87 22.8698 118.87H28.1399C30.5099 118.87 31.1099 120.22 31.3899 121.54L32.2399 125.59C32.2899 125.81 32.2298 126.04 32.0898 126.22C31.9398 126.4 31.7299 126.5 31.4999 126.5ZM20.4199 125H30.5699L29.9099 121.85C29.6999 120.84 29.4499 120.37 28.1299 120.37H22.8599C21.5399 120.37 21.2899 120.84 21.0799 121.85L20.4199 125Z" fill="white"/>
<path d="M31.4698 134.75H30.0598C28.7098 134.75 28.4298 133.92 28.2898 133.47L28.1398 133.02C27.9598 132.51 27.9598 132.51 27.4298 132.51H23.5898C23.0498 132.51 23.0399 132.53 22.8799 133.02L22.7298 133.47C22.5798 133.92 22.2998 134.76 20.9498 134.76H19.5398C18.8898 134.76 18.2798 134.49 17.8398 134.01C17.4198 133.55 17.2098 132.92 17.2698 132.3L17.6898 127.73C17.8198 126.31 18.2798 125 20.7198 125H30.2898C32.7298 125 33.1899 126.31 33.3199 127.73L33.7399 132.3C33.7999 132.92 33.5898 133.54 33.1698 134.01C32.7298 134.48 32.1198 134.75 31.4698 134.75ZM29.7998 133.23C29.8198 133.23 29.8998 133.25 30.0598 133.25H31.4698C31.6998 133.25 31.9098 133.16 32.0598 132.99C32.1998 132.83 32.2698 132.64 32.2498 132.43L31.8298 127.86C31.7398 126.92 31.6998 126.49 30.2898 126.49H20.7198C19.3098 126.49 19.2698 126.92 19.1798 127.86L18.7598 132.43C18.7398 132.64 18.8098 132.84 18.9498 132.99C19.0998 133.16 19.3098 133.25 19.5398 133.25H20.9498C21.1698 133.25 21.2299 133.22 21.2399 133.22C21.2399 133.21 21.2798 133.09 21.3098 133L21.4599 132.55C21.6599 131.94 21.9699 131.01 23.5999 131.01H27.4398C29.0498 131.01 29.3499 131.89 29.5699 132.54L29.7298 133C29.7398 133.08 29.7698 133.19 29.7998 133.23Z" fill="white"/>
<path d="M19.5 124.25H18.75C18.34 124.25 18 123.91 18 123.5C18 123.09 18.34 122.75 18.75 122.75H19.5C19.91 122.75 20.25 123.09 20.25 123.5C20.25 123.91 19.91 124.25 19.5 124.25Z" fill="white"/>
<path d="M32.25 124.25H31.5C31.09 124.25 30.75 123.91 30.75 123.5C30.75 123.09 31.09 122.75 31.5 122.75H32.25C32.66 122.75 33 123.09 33 123.5C33 123.91 32.66 124.25 32.25 124.25Z" fill="white"/>
<path d="M23.25 129.5H21C20.59 129.5 20.25 129.16 20.25 128.75C20.25 128.34 20.59 128 21 128H23.25C23.66 128 24 128.34 24 128.75C24 129.16 23.66 129.5 23.25 129.5Z" fill="white"/>
<path d="M30 129.5H27.75C27.34 129.5 27 129.16 27 128.75C27 128.34 27.34 128 27.75 128H30C30.41 128 30.75 128.34 30.75 128.75C30.75 129.16 30.41 129.5 30 129.5Z" fill="white"/>
<path d="M34.7101 121.49C34.6101 121.49 34.5101 121.47 34.4101 121.43C34.0301 121.26 33.8601 120.82 34.0201 120.44C34.2101 120.01 34.1001 119.38 33.7501 118.86C33.4001 118.33 32.8701 117.98 32.3801 118H32.3701C31.9601 118 31.6301 117.67 31.6201 117.26C31.6201 116.84 31.9501 116.51 32.3601 116.5C33.3901 116.48 34.3601 117.07 34.9901 118.02C35.6301 118.98 35.7801 120.13 35.3901 121.03C35.2801 121.32 35.0001 121.49 34.7101 121.49Z" fill="white"/>
<path d="M37.8201 122.48C37.7501 122.48 37.6901 122.47 37.6201 122.45C37.2201 122.34 36.9901 121.93 37.1001 121.53C37.4801 120.17 37.1601 118.55 36.2501 117.19C35.3401 115.83 33.9601 114.92 32.5501 114.75C32.1401 114.7 31.8501 114.33 31.9001 113.92C31.9501 113.51 32.3301 113.21 32.7301 113.27C34.5601 113.49 36.3401 114.65 37.4901 116.37C38.6401 118.09 39.0301 120.17 38.5401 121.95C38.4501 122.26 38.1501 122.48 37.8201 122.48Z" fill="white"/>
<path d="M28.14 167.62H22.87C21.01 167.62 20.59 168.55 20.36 169.7L19.51 173.75H31.51L30.66 169.7C30.41 168.55 30 167.62 28.14 167.62Z" stroke="white" stroke-width="1.5" stroke-linecap="round" stroke-linejoin="round"/>
<path d="M32.99 180.36C33.07 181.24 32.37 182 31.47 182H30.06C29.25 182 29.14 181.65 28.99 181.23L28.84 180.78C28.63 180.17 28.49 179.75 27.41 179.75H23.57C22.49 179.75 22.33 180.22 22.14 180.78L21.99 181.23C21.85 181.66 21.74 182 20.92 182H19.51C18.61 182 17.9 181.24 17.99 180.36L18.41 175.79C18.52 174.66 18.73 173.74 20.7 173.74H30.27C32.24 173.74 32.45 174.66 32.56 175.79L32.99 180.36Z" stroke="white" stroke-width="1.5" stroke-linecap="round" stroke-linejoin="round"/>
<path d="M19.5 171.5H18.75" stroke="white" stroke-width="1.5" stroke-linecap="round" stroke-linejoin="round"/>
<path d="M32.25 171.5H31.5" stroke="white" stroke-width="1.5" stroke-linecap="round" stroke-linejoin="round"/>
<path opacity="0.4" d="M21 176.75H23.25" stroke="white" stroke-width="1.5" stroke-linecap="round" stroke-linejoin="round"/>
<path opacity="0.4" d="M27.75 176.75H30" stroke="white" stroke-width="1.5" stroke-linecap="round" stroke-linejoin="round"/>
<path opacity="0.4" d="M34.71 168.74C34.99 168.09 34.89 167.21 34.37 166.44C33.86 165.67 33.08 165.24 32.37 165.25" stroke="white" stroke-width="1.5" stroke-linecap="round" stroke-linejoin="round"/>
<path opacity="0.4" d="M37.82 169.73C38.24 168.22 37.94 166.37 36.87 164.77C35.8 163.17 34.2 162.19 32.64 162" stroke="white" stroke-width="1.5" stroke-linecap="round" stroke-linejoin="round"/>
<path d="M34.71 217.49C34.61 217.49 34.51 217.47 34.41 217.43C34.03 217.26 33.86 216.82 34.02 216.44C34.21 216.01 34.1 215.38 33.75 214.86C33.4 214.33 32.87 213.98 32.38 214C31.94 214 31.63 213.67 31.62 213.26C31.62 212.84 31.95 212.51 32.36 212.5C33.39 212.48 34.36 213.07 34.99 214.02C35.63 214.98 35.78 216.13 35.39 217.03C35.28 217.32 35 217.49 34.71 217.49Z" fill="white"/>
<path d="M37.82 218.48C37.75 218.48 37.69 218.47 37.62 218.45C37.22 218.34 36.99 217.93 37.1 217.53C37.48 216.17 37.16 214.55 36.25 213.19C35.34 211.83 33.96 210.92 32.55 210.75C32.14 210.7 31.85 210.33 31.9 209.92C31.95 209.51 32.33 209.21 32.73 209.27C34.56 209.49 36.34 210.65 37.49 212.37C38.64 214.09 39.03 216.17 38.54 217.95C38.45 218.26 38.15 218.48 37.82 218.48Z" fill="white"/>
<path opacity="0.4" d="M33.52 223.84C33.41 222.62 33.08 221.31 30.7 221.31H21.23C18.85 221.31 18.53 222.62 18.41 223.84L17.99 228.36C17.94 228.92 18.13 229.49 18.51 229.91C18.9 230.34 19.46 230.59 20.05 230.59H21.44C22.64 230.59 22.87 229.9 23.02 229.45L23.17 229.01C23.34 228.5 23.38 228.37 24.05 228.37H27.85C28.51 228.37 28.54 228.44 28.73 229.01L28.88 229.46C29.03 229.91 29.26 230.6 30.46 230.6H31.85C32.44 230.6 33 230.35 33.39 229.92C33.77 229.5 33.96 228.93 33.91 228.37L33.52 223.84Z" fill="white"/>
<path d="M32.65 219.09H31.91C31.9 219.09 31.9 219.09 31.89 219.09L31.61 217.74C31.34 216.44 30.79 215.25 28.58 215.25H26.53H25.42H23.37C21.16 215.25 20.6 216.44 20.34 217.74L20.06 219.09C20.05 219.09 20.05 219.09 20.04 219.09H19.3C18.99 219.09 18.74 219.34 18.74 219.65C18.74 219.96 18.99 220.21 19.3 220.21H19.83L19.52 221.69C19.92 221.46 20.48 221.32 21.25 221.32H30.72C31.49 221.32 32.05 221.46 32.45 221.69L32.14 220.21H32.67C32.98 220.21 33.23 219.96 33.23 219.65C33.21 219.34 32.96 219.09 32.65 219.09Z" fill="white"/>
<path d="M23.75 225.39H21.52C21.21 225.39 20.96 225.14 20.96 224.83C20.96 224.52 21.21 224.27 21.52 224.27H23.75C24.06 224.27 24.31 224.52 24.31 224.83C24.3 225.14 24.06 225.39 23.75 225.39Z" fill="white"/>
<path d="M30.43 225.39H28.2C27.89 225.39 27.64 225.14 27.64 224.83C27.64 224.52 27.89 224.27 28.2 224.27H30.43C30.74 224.27 30.99 224.52 30.99 224.83C30.98 225.14 30.73 225.39 30.43 225.39Z" fill="white"/>
<path d="M24.39 263.62H22.87C21.01 263.62 20.59 264.55 20.36 265.7L19.51 269.75H31.51L30.66 265.7C30.42 264.56 30.01 263.62 28.15 263.62" stroke="white" stroke-width="1.5" stroke-linecap="round" stroke-linejoin="round"/>
<path d="M32.89 275.19L33 276.36C33.08 277.24 32.38 278 31.48 278H30.07C29.26 278 29.15 277.65 29 277.23L28.85 276.78C28.64 276.17 28.5 275.75 27.42 275.75H23.58C22.5 275.75 22.34 276.22 22.15 276.78L22 277.23C21.86 277.66 21.75 278 20.93 278H19.52C18.62 278 17.91 277.24 18 276.36L18.42 271.79C18.53 270.66 18.74 269.74 20.71 269.74H30.28C32.25 269.74 32.46 270.66 32.57 271.79" stroke="white" stroke-width="1.5" stroke-linecap="round" stroke-linejoin="round"/>
<path d="M19.5 267.5H18.75" stroke="white" stroke-width="1.5" stroke-linecap="round" stroke-linejoin="round"/>
<path d="M32.25 267.5H31.5" stroke="white" stroke-width="1.5" stroke-linecap="round" stroke-linejoin="round"/>
<path d="M21 272.75H23.25" stroke="white" stroke-width="1.5" stroke-linecap="round" stroke-linejoin="round"/>
<path d="M27.75 272.75H30" stroke="white" stroke-width="1.5" stroke-linecap="round" stroke-linejoin="round"/>
<path d="M34.71 264.74C34.99 264.09 34.89 263.21 34.37 262.44C33.86 261.67 33.08 261.24 32.37 261.25" stroke="white" stroke-width="1.5" stroke-linecap="round" stroke-linejoin="round"/>
<path d="M34.38 258.54C33.81 258.26 33.22 258.07 32.64 258" stroke="white" stroke-width="1.5" stroke-linecap="round" stroke-linejoin="round"/>
<path d="M37.82 265.73C38.24 264.22 37.94 262.37 36.87 260.77" stroke="white" stroke-width="1.5" stroke-linecap="round" stroke-linejoin="round"/>
</svg>
