<svg width="34" height="34" viewBox="0 0 34 34" fill="none" xmlns="http://www.w3.org/2000/svg">
<path d="M17 26.2083C22.0856 26.2083 26.2083 22.0856 26.2083 17C26.2083 11.9143 22.0856 7.79163 17 7.79163C11.9144 7.79163 7.79167 11.9143 7.79167 17C7.79167 22.0856 11.9144 26.2083 17 26.2083Z" stroke="white" stroke-width="1.5" stroke-linecap="round" stroke-linejoin="round"/>
<path d="M27.115 27.115L26.9308 26.9309M26.9308 7.06921L27.115 6.88504L26.9308 7.06921ZM6.885 27.115L7.06916 26.9309L6.885 27.115ZM17 2.94671V2.83337V2.94671ZM17 31.1667V31.0534V31.1667ZM2.94666 17H2.83333H2.94666ZM31.1667 17H31.0533H31.1667ZM7.06916 7.06921L6.885 6.88504L7.06916 7.06921Z" stroke="white" stroke-width="1.5" stroke-linecap="round" stroke-linejoin="round"/>
</svg>
